<svg id="Layer_1" data-name="Layer 1" xmlns="http://www.w3.org/2000/svg" viewBox="0 0 1815.27 333.05"><defs><style>.cls-1{fill:#fdf9d2;}</style></defs><path class="cls-1" d="M107.36,1105.32a606.53,606.53,0,0,1,37.23-55l-5.86,7.59c15.71-20.32,33.09-39.55,53.47-55.3l-7.59,5.87a157.15,157.15,0,0,1,33.59-20l-9,3.78A109.66,109.66,0,0,1,235.88,985l-10,1.34a95.49,95.49,0,0,1,23.71,0l-10-1.34a96.71,96.71,0,0,1,23.61,6.42l-9-3.78A111.88,111.88,0,0,1,278.54,1002L271,996.09c12.12,9.44,22.49,20.83,31.91,32.93l-5.87-7.59c20.17,26.11,35.93,55.2,54,82.72,18.4,28,40.46,58.37,71.44,73.51,16.83,8.23,35.55,13.52,54.48,12.12,18.23-1.35,35.65-6.39,51.21-16.22,29.26-18.5,50-47.23,68.55-75.85,20.26-31.34,38.15-64.29,61-93.93l-5.87,7.59c11-14.26,23.24-27.7,37.54-38.77l-7.59,5.86a128.25,128.25,0,0,1,27.16-16.09l-9,3.78A107.25,107.25,0,0,1,726,958.87l-10,1.34a102.74,102.74,0,0,1,27.25,0l-10-1.34a121,121,0,0,1,29.08,8.22l-9-3.78a177.68,177.68,0,0,1,37.68,22.5L783.49,980c23.44,18.13,43.44,40.29,61.58,63.62l-5.86-7.59a734.41,734.41,0,0,1,46.93,69.29c10.14,16.78,34.11,24.54,51.3,13.45,16.87-10.87,24.31-33.34,13.46-51.31-25.9-42.84-55.07-85.29-91.13-120.27C825.65,914.08,784,887.5,735.51,884.47,695,882,657.28,900.39,627.71,926.64c-24.26,21.54-43.18,49.17-60.49,76.38-18,28.26-34.13,57.86-54.59,84.45l5.87-7.59c-8.37,10.8-17.53,21.07-28.33,29.51l7.59-5.86a88.38,88.38,0,0,1-18.9,11.27l8.95-3.78a68.83,68.83,0,0,1-16.84,4.67l10-1.34a70.5,70.5,0,0,1-18.47,0l10,1.34a72.39,72.39,0,0,1-17.26-4.77l9,3.78A87.91,87.91,0,0,1,445,1103.21l7.59,5.87c-10.12-7.95-18.75-17.55-26.63-27.69l5.86,7.59c-33.95-44-55.8-97.3-96.49-136.16-25.53-24.39-56.76-40.09-92.32-42.14-43.1-2.48-82.64,20-114.07,47.35-18.53,16.13-34.15,35-49.06,54.47a611.29,611.29,0,0,0-37.23,55c-10.19,16.79-4.25,42,13.45,51.31,18.22,9.63,40.44,4.47,51.31-13.45Z" transform="translate(-37.63 -856.95)"/><path class="cls-1" d="M1783.16,941.64a608,608,0,0,1-37.24,55l5.87-7.59c-15.72,20.32-33.09,39.55-53.47,55.29l7.59-5.86a157.81,157.81,0,0,1-33.59,20l9-3.78a109.14,109.14,0,0,1-26.65,7.35l10-1.34a94.93,94.93,0,0,1-23.7,0l10,1.34a97.06,97.06,0,0,1-23.61-6.43l9,3.78A111.44,111.44,0,0,1,1612,1045l7.59,5.86c-12.13-9.45-22.5-20.83-31.91-32.93l5.86,7.59c-20.16-26.12-35.93-55.2-54-82.72-18.39-28-40.45-58.37-71.43-73.51-16.84-8.23-35.55-13.53-54.48-12.12-18.23,1.35-35.66,6.39-51.21,16.22-29.26,18.49-50.05,47.23-68.56,75.85-20.26,31.34-38.14,64.29-60.94,93.93l5.86-7.59c-11,14.26-23.24,27.7-37.53,38.77l7.59-5.86a128.5,128.5,0,0,1-27.16,16.09l8.95-3.78a108,108,0,0,1-26,7.28l10-1.34a103.23,103.23,0,0,1-27.26,0l10,1.34a121.11,121.11,0,0,1-29.08-8.22l9,3.78a178.42,178.42,0,0,1-37.69-22.5L1107,1067c-23.45-18.13-43.44-40.29-61.59-63.63l5.87,7.59a733,733,0,0,1-46.93-69.28c-10.15-16.78-34.11-24.54-51.31-13.45-16.86,10.87-24.31,33.34-13.45,51.31,25.9,42.84,55.07,85.28,91.13,120.27,34.12,33.1,75.73,59.68,124.26,62.71,40.47,2.53,78.22-15.91,107.8-42.17,24.26-21.53,43.18-49.16,60.48-76.38,18-28.25,34.14-57.85,54.59-84.44l-5.86,7.59c8.37-10.8,17.53-21.08,28.33-29.51l-7.59,5.86a88.18,88.18,0,0,1,18.9-11.28l-9,3.78a69.38,69.38,0,0,1,16.84-4.66l-10,1.33a70.57,70.57,0,0,1,18.48.06l-10-1.34a72.18,72.18,0,0,1,17.25,4.77l-9-3.78a88,88,0,0,1,19.19,11.43l-7.59-5.86c10.13,8,18.76,17.55,26.64,27.69l-5.87-7.59c34,44,55.81,97.29,96.49,136.16,25.53,24.39,56.77,40.09,92.33,42.13,43.1,2.49,82.64-20,114.07-47.34,18.53-16.13,34.15-35,49-54.47a611.4,611.4,0,0,0,37.24-55c10.18-16.8,4.25-42-13.46-51.31-18.22-9.63-40.43-4.47-51.3,13.45Z" transform="translate(-37.63 -856.95)"/></svg>