<svg id="Layer_1" data-name="Layer 1" xmlns="http://www.w3.org/2000/svg" viewBox="0 0 999.79 999.84"><defs><style>.cls-1{fill:#3d564a;}.cls-2{fill:#486054;}</style></defs><path class="cls-1" d="M690.39,1722.11c-11.14-6.89-23.42-9.21-36.35-8.62-17.22.78-32.72,7-47.67,15-11.43,6.13-22.35,13.33-34.64,17.66-24,8.44-47.06,7.2-68.79-7a2,2,0,0,0-.11-.2,13.75,13.75,0,0,1-2.48-1.4h-.12c-2.4,0-5.21-1.62-6.3,2.46-.4,1.54-2.49,1.64-3.63.14-1-1.27-1.13-2.74.42-3.89,1.34-1,3.21-.87,4.41-2.13a1.7,1.7,0,0,0,.2-.47,49.69,49.69,0,0,1-8.82-11.71l-.42-.09c-11.69-17.64-13.73-53.5,13-71.23a137.29,137.29,0,0,1,15-8.88c15.24-7.54,31.59-12.28,47.25-18.76,17.39-7.19,34.08-15.74,46-30.71,26.34-33.12,30.51-69.77,14.15-108.34-13.24-31.22-36.75-53.51-66-69.76-25.86-14.35-53.87-20.56-83.38-20.27v33c4.7,2.68,10,1.92,15.05,2.44,35.39,3.71,65.21,18.14,88.11,45.67,12.92,15.53,21.06,33,20.31,53.89-.92,25.16-12,43.84-34.37,55.66-12.11,6.41-25.13,10.65-37.91,15.44-15.64,5.85-30.93,12.39-44.57,22.26-2.56,1.86-5.26,3.55-6.62,6.61v129a154.73,154.73,0,0,0,16,11.87c1.77.24,3.09-1.18,4.74-1.32,2-.17,4-.48,5.51,1.41,1.7,2.13-.05,3.29-1.16,4.68,0,0,0,0,0,.05a13.17,13.17,0,0,1,.95,1,13.85,13.85,0,0,1,5.59,2.14l.52,0c1.59.45,3.2.86,4.78,1.37a112.52,112.52,0,0,0,62.08,2.2c16.4-4,30.83-12.3,45.4-20.35,9.18-5.07,18.38-10.18,28.7-12.63,9.59-2.27,19.06-2.9,28.12,2.32,8.88,5.11,18.7,2.77,23.52-5.35S699.07,1727.49,690.39,1722.11Z" transform="translate(-472.08 -940.08)"/><path class="cls-1" d="M472.08,996.07c32-6.21,68.94,14.36,78.08,43.5a53.13,53.13,0,0,1-34.63,66.61c-7.94,2.51-15.92,4.85-23.09,9.25a40.29,40.29,0,0,0-16.14,17.91c-4.05,8.93-3,17.15,3.69,24.52,4.85,5.37,10.74,9.43,16.71,13.39,9,6,18.34,11.52,26.57,18.61,21.63,18.63,27.34,41.69,17,68.37-4.9,12.7-12.84,23.65-19.72,35.22-3.49,5.88-6.71,11.88-8.12,18.67-1,4.75-.68,9.27,2.13,13.42,2.19,3.23,4.65,5,9.11,4.38,9.55-1.4,17.2,4.42,18.89,13.65,1.53,8.41-3.71,16.52-12.57,18.9-13.57,3.65-25.53,0-35.48-9.43-14.92-14.09-19-31.49-14-51.18,3.1-12.11,9.4-22.7,16-33.13,4.8-7.59,9.8-15.08,13-23.57,4.61-12.41,2.78-20.32-7.11-29.11-9.25-8.22-20.21-14-30.34-21v-107c1.74-2.34,4.2-3.72,6.71-5a113.48,113.48,0,0,1,24.54-9.63c13.27-3.48,19.45-20.51,8.33-31.16-9.4-9-20.13-13.07-33-11.85-2.32.22-4.68.57-6.59-1.3Z" transform="translate(-472.08 -940.08)"/><path class="cls-1" d="M1337.9,940.08c1.25,16.34-4.17,30.72-12.86,44.2a36.15,36.15,0,0,0-5.58,12.72c-.62,3.24.45,5.19,3.6,6,3.71.91,7.44,1.76,11.18,2.58,33,7.26,47.48,32.45,37.25,64.85-3.19,10.08-8.66,19-14,28-4.85,8.15-9.69,16.29-10.79,26a53.3,53.3,0,0,0,31.55,54.88c7.92,3.45,11.81,10.08,10.72,18.29a16.73,16.73,0,0,1-14.29,14c-3.79.57-7.29-.47-10.64-2-28.6-13.15-44.69-35.87-50-66.43-3.38-19.29.68-37.38,10.36-54.28,4-6.92,8.08-13.77,11.91-20.77,2.9-5.3,4.89-10.92,4.73-17.12-.18-7.24-2.12-10-9-11.78-4.82-1.25-9.76-2.06-14.6-3.28-26.08-6.6-37.37-27.67-28.61-53.2,2.39-7,6.06-13.31,9.9-19.54,4.42-7.15,7.14-14.64,5.25-23.19Z" transform="translate(-472.08 -940.08)"/><path class="cls-1" d="M946,1939.92c15-30.07,41.17-44.57,72.47-51.94,18.83-4.43,38.16-5.92,57-10,13.77-3,27-7.33,38.22-16.32,10.89-8.76,17.3-19.77,15.29-34.3a17.8,17.8,0,0,0-14.56-15.21,13.93,13.93,0,0,0-10.92,2.09c-8.15,5.32-18.19,3.27-23.34-4.42s-3-17.59,4.87-23.35c17.74-13,45-10,62.31,6.87,16.08,15.64,20.18,41.59,10.22,64.53-10.33,23.78-29.47,37.49-52.88,46.35-19.33,7.32-39.74,9.54-59.94,12.76-14.66,2.34-29.2,5.15-42.59,11.94-5.63,2.85-11.15,5.95-15.19,11Z" transform="translate(-472.08 -940.08)"/><path class="cls-1" d="M827,940.08c-.09,8.39-3.3,15.89-7,23.12-8.43,16.27-21.32,28.32-36.67,37.95-12.59,7.89-26.18,13.76-39.65,19.9-13.19,6-26.25,12.23-37.33,21.85-21.36,18.52-24.59,46.64-7.95,69.39,6.09,8.33,5.22,18.23-2.11,24.07-7.61,6.06-17.56,4.59-24.21-3.59-23.45-28.84-27.35-81.85,12.9-115.65,11.44-9.6,24.29-16.84,37.73-23.18,12-5.66,24.35-10.71,36-17.09,10.62-5.79,20.4-12.64,27.58-22.58,3.1-4.28,6.22-8.64,6.73-14.19Z" transform="translate(-472.08 -940.08)"/><path class="cls-1" d="M986,940.08c-9.2,10.82-15.11,22.94-15.18,37.5-.12,26,18,47.67,45.05,53.43,18.4,3.93,36.77,2,55.12-.41,4.78-.63,9.55-1.6,14.35-1.82a16.16,16.16,0,0,1,16.67,13.51c1.38,8.79-3.27,17.24-11.74,18.81-28.58,5.28-57.36,9-86.1,1.35-54.47-14.52-80.88-69.22-58.7-121,.2-.46.36-.93.54-1.39Z" transform="translate(-472.08 -940.08)"/><path class="cls-1" d="M582.87,1890.68c-15.63-36-42.68-58.68-80.52-68.4a13.28,13.28,0,0,1-1.68.12,13.11,13.11,0,0,1-2.51-.25,2.35,2.35,0,0,0-1,2.45c.19,1.88-.43,1.83-1.67,1.82a36,36,0,0,1-4.18,0c1.36-.27,3.33,0,3.82-1.9.38-1.47-1.28-2.06-2.26-2.88A20.11,20.11,0,0,0,491,1820l-18.95-1v34c4.65,3.09,9.69,1.69,14.66,1.3,3.12-1.94,6.42-3,9.66-2.25-1.47.28-3.62.35-3.36,3.24,1.27,1.31,3.19,1,4.65,1.78a8.49,8.49,0,0,0,1.42.38c27.27,9.16,45.53,27.3,54.59,54.68,2.46,7.43,4.44,15,7.11,22.37.74,2,1.43,4.09,3.25,5.49h36C593.13,1923.92,589.81,1906.64,582.87,1890.68Z" transform="translate(-472.08 -940.08)"/><path class="cls-1" d="M1186.93,1939.92a5.47,5.47,0,0,1,.14-1.92c15.28-32.08,39.25-53,75.43-57.38,34.89-4.21,68.47,21.34,74.48,56,.2,1.13.61,2.22.92,3.33h-34a7.61,7.61,0,0,1-3.14-3.73c-10.85-22.28-33-25.55-52.43-15.66a60.15,60.15,0,0,0-19.42,15.38,15.81,15.81,0,0,1-5,4Z" transform="translate(-472.08 -940.08)"/><path class="cls-1" d="M702,940.08c-5.92,21.62-26.1,46.1-57.13,51-33.56,5.29-61.32-9.38-76-40-1.72-3.6-3.2-7.3-4.8-10.95h37a11.78,11.78,0,0,1,4,3.65c13.23,18.85,41.37,16.95,55.52.94a32,32,0,0,1,4.49-4.59Z" transform="translate(-472.08 -940.08)"/><path class="cls-1" d="M1471.87,1852.93c-23.44,1.47-42.82,11.2-58.25,28.82-4.59,5.24-10.26,7.4-17,5.9a15.63,15.63,0,0,1-12.14-11.36,16.07,16.07,0,0,1,3.37-15.87c20.38-23.63,46.21-36.92,77.11-40.56,2.3-.28,4.59-.62,6.89-.92Z" transform="translate(-472.08 -940.08)"/><path class="cls-1" d="M1471.87,1427c-23.79-.42-47,3.45-69.85,9.7-10.12,2.77-19.31-1.93-21.86-11-2.68-9.51,2.6-18.22,13-21.15,24.1-6.76,48.61-10.85,73.72-10.9,1.64,0,3.29.23,4.94.35Z" transform="translate(-472.08 -940.08)"/><path class="cls-1" d="M1223.92,940.08c-12.7,19.71-15.82,41.68-15.11,64.54.08,2.66.23,5.32.28,8,.17,9.85-6.54,17.28-15.84,17.57-9.55.3-16.64-6.33-17.41-16.1-2-25.41.77-50.15,10.09-74Z" transform="translate(-472.08 -940.08)"/><path class="cls-1" d="M794,1939.92c.59-6.12,1.27-12.24-1.7-18-3.52-6.85-8-11.78-16.61-12.33-9.45-.61-15.89-9.06-15-18.36.89-9,8.46-15.3,18-14.88,21.72.93,41,17.68,47.3,40.87,2.05,7.51,1.86,15.11,2,22.74Z" transform="translate(-472.08 -940.08)"/><path class="cls-1" d="M1471.87,1757c-11.92-9.89-19.27-22.83-23.34-37.41-9-32.18-4.21-61.56,19.52-86.49a37,37,0,0,1,3.82-3.08Z" transform="translate(-472.08 -940.08)"/><path class="cls-1" d="M1471.87,1195c-5.28-4-10.61-8-15.17-12.88-16.58-17.78-20.89-38.06-11.78-60.71a67.3,67.3,0,0,1,26.95-32.39Z" transform="translate(-472.08 -940.08)"/><path class="cls-1" d="M472.08,1477c11.15-4.84,19.07-2.13,25,8.55,16.29,29.32,4.7,67.07-25,81.44Z" transform="translate(-472.08 -940.08)"/><path class="cls-1" d="M893,940.08c-3,14.38.33,27.38,8.89,39.08,3,4.05,5.06,8.22,4.59,13.32a16.49,16.49,0,0,1-11.42,14.39c-7.07,2.09-13.29.44-18-5.24C866.42,988.84,860.59,974,859,957.52a69.72,69.72,0,0,1,0-17.44Z" transform="translate(-472.08 -940.08)"/><path class="cls-1" d="M666,1939.92a55.11,55.11,0,0,0,6.26-38c-1.66-9,4.89-17.43,13.78-18.87a16.64,16.64,0,0,1,19,13c2.94,13.24,2.15,26.41-1.27,39.47-.37,1.43-1.17,2.77-.75,4.34Z" transform="translate(-472.08 -940.08)"/><path class="cls-1" d="M1471.87,1567a27,27,0,0,1-10.15,4,16.64,16.64,0,0,1-18.46-11.89,16.34,16.34,0,0,1,9.77-20c8-3.27,13.93-8.48,16.62-16.77,2.51-7.72,1.21-15-2.84-22.07-4.41-7.63-3.17-15.85,2.9-21.35.62-.56,1.2-1.16,2.16-.85Z" transform="translate(-472.08 -940.08)"/><path class="cls-1" d="M859,1939.92a71.78,71.78,0,0,1,6.31-24c4-8.77,13.57-12.47,22.09-8.73,8.27,3.63,11.91,12.86,8.62,21.78-1.31,3.56-3.18,7-3,10.94Z" transform="translate(-472.08 -940.08)"/><path class="cls-1" d="M1471.87,1029.06c-6.57-2.34-11.73-6.09-13.09-13.46-1.75-9.4,3.41-17.06,13.09-19.53Z" transform="translate(-472.08 -940.08)"/><path class="cls-1" d="M1023.2,1347.89c-29,.55-54.51,11-77.78,27.59-25.17,18-45.45,41-65.31,64.36-25.9,30.48-50.34,62-71.53,96.06-9.73,15.61-21.22,30-36.26,40.91-17.83,13-37.76,18.12-59.51,13.43-36.37-7.83-54.51-45.88-38.12-79.28,6.45-13.15,16.13-23.61,27.73-32.31,9.2-6.88,18.74-13.29,28-20.13,9.57-7.11,18.13-15.17,23.25-26.28,11.39-24.71,1.77-48.37-23.69-58.12-23.71-9.07-54.81-.79-68.12,18.38-5.64,8.14-16.16,9.36-23.91,3.76s-9.52-16.23-3.59-24.39c14-19.34,33.51-30.08,56.65-34.27,24.39-4.43,47.48-.83,68.3,13.26,35.09,23.76,43.86,66,21.72,103.52-9,15.28-22.14,26.45-36.34,36.57-7,5-14.2,9.91-21.16,15s-12.88,11.12-17,18.69c-8.51,15.48.56,31.61,18.16,32.48a41.37,41.37,0,0,0,29.16-9.63,115.78,115.78,0,0,0,24.65-28.68c29.16-46.62,63.43-89.29,100.53-129.73,23.35-25.46,49.24-47.82,81.36-61.77,31.25-13.57,63.59-19,96.9-9.26,32,9.4,56.5,28.44,68.1,60.73,16.77,46.66-21.13,99.31-70.63,98.88-11.26-.1-19-7.24-18.89-17.52.07-10,7.74-17.58,18.76-17,22.56,1.22,52.21-28.78,35.57-59.22-11.2-20.51-29.55-30.89-52-34.93A74.73,74.73,0,0,0,1023.2,1347.89Z" transform="translate(-472.08 -940.08)"/><path class="cls-1" d="M1194.84,1230.8c0-11.17,3.3-26.69,5.57-42.33,1.7-11.73,3.27-23.49.5-35.25-4-16.76-20-27.65-36.34-24.81-17.68,3.08-29.22,22.14-24.1,39.89,2,7.06,5.3,13.64,8.2,20.36,5.86,13.6,8.81,27.57,5.25,42.33-6.31,26.14-32.57,37.88-56.21,25-13-7.07-22.1-18-28.8-31-3.89-7.54-7.09-15.43-11.7-22.6-8.91-13.86-20-14-29.41-.3-6.54,9.55-5.75,20.23-4.35,30.88,1.23,9.44,4.43,18.43,6.71,27.63a16.26,16.26,0,0,1-8.88,18.73,16.52,16.52,0,0,1-20.26-4.6,14.14,14.14,0,0,1-2.47-4.3c-5.36-16.86-10.22-33.89-9.38-51.81,1.23-25.89,12.42-45.8,36.75-56.53,19.11-8.43,39.82-2.44,53.77,14.49,6.94,8.43,11.73,18.14,16.36,27.93,3.29,7,6.77,13.77,12.83,18.81,2.79,2.32,5.8,5.58,9.57,4s3.48-6.05,3.56-9.69c.14-5.82-2-11.08-4.24-16.3-4.25-9.93-9-19.68-10.94-30.45-5.95-33.13,15.18-66.4,47.28-74.45,32.87-8.24,67.34,11,77.74,43.38,5.67,17.65,4.24,35.51,1.6,53.42-1.82,12.35-4,24.63-5.12,37.09-3.17,35.74,22,73.62,55.36,82.93,8.88,2.48,17.77,2.81,26.47-.7a19.93,19.93,0,0,0,11.64-23.78,10.9,10.9,0,0,0-5.45-6.76c-8.61-5-11.45-14.44-7.06-22.66s14.27-11,23.32-6.47c16.35,8.26,25.77,28,22.79,47.79-4.58,30.51-29.65,50-61.76,47.69-36.6-2.64-62.65-22.21-81.66-52.23C1200.32,1277.8,1194.69,1257.42,1194.84,1230.8Z" transform="translate(-472.08 -940.08)"/><path class="cls-1" d="M809,1731.81c.14-57.53,38-110.14,91-126.13,29.75-9,58.63-5.19,86.75,6.81,22.8,9.72,42.66,23.85,60.26,41.19,23.47,23.12,48.68,44,77.66,59.91,16.73,9.19,34.12,16.64,53.57,17.7,11.65.64,22.51-1.75,32.16-8.6,10.59-7.5,15.64-22.09,12-34.59a19.66,19.66,0,0,0-8.74-11.67c-8.57-5.41-10.91-15.35-5.82-23.37,5-7.81,14.72-9.94,23.26-5.07,18.08,10.31,28.26,33.23,25.44,55.85-5,39.71-36.56,56.69-62.67,60.13-27.23,3.59-52.12-4.45-76-16.27-34.83-17.26-64.76-41.28-92.36-68.36-15.59-15.29-32.85-28.11-53.1-36.65-49.66-20.94-100.36-.45-121.62,49.2a100.76,100.76,0,0,0-7.95,50.23c1.27,13.16-9.45,22.43-21.3,18.75-6.64-2.07-10.53-6.72-11.65-13.61A95.06,95.06,0,0,1,809,1731.81Z" transform="translate(-472.08 -940.08)"/><path class="cls-1" d="M741.4,1219.93c18.28,1.2,36.55,2.47,54.83,3.57,25.39,1.52,50.66,1.24,75-7.39,26.7-9.47,44.79-26.77,50.2-55.6A67.41,67.41,0,0,0,863.37,1081a73.68,73.68,0,0,0-26.76,1.42,16.64,16.64,0,1,1-8.12-32.28c53.37-14.32,119,20.09,126.49,84.23,6.16,52.62-22.3,96.18-73.55,113.62-22.35,7.6-45.44,9.91-68.89,9.54-23.83-.38-47.53-3.18-71.33-4s-47,.85-69,10.5c-16.12,7-29.5,17.22-37.89,33.23a16.36,16.36,0,0,1-22.25,7.15c-8.32-4.22-11.57-13.92-7.18-22.63,11-21.74,28.6-36.43,50.25-46.68,21.12-10,43.57-14.2,66.76-14.93,6.49-.2,13,0,19.49,0Z" transform="translate(-472.08 -940.08)"/><path class="cls-1" d="M1151.71,1552.31c2.47-40,21.69-69.69,56.07-89.8a95.51,95.51,0,0,1,38.73-12.28c10-1,18.32,5.22,19.39,14.5,1.1,9.58-5.05,17.7-15.24,18.59-30.2,2.64-58.14,28.13-64.21,58.09-2.44,12-1.55,23.58,4.72,34.3,6.37,10.89,15.92,13.18,26.71,6.61,7.95-4.84,14.24-11.53,19.82-18.82,15.39-20.1,30.56-40.35,45.83-60.54,7-9.32,14.64-18.13,24-25.32,33.3-25.72,72-8.93,85.7,16.49,12.72,23.71,5.56,55.83-16.31,71.65-8.28,6-18.24,4.94-24.05-2.53s-4.31-17.66,3.92-24.17c8-6.34,11-14.76,8.73-24.42s-9.66-14.43-19-16.21c-7.44-1.42-13.69,1.74-19.35,6.17-6.35,5-11.4,11.18-16.24,17.56-15.71,20.69-31.28,41.48-47.09,62.08-6.91,9-14.75,17.2-24.2,23.66-32,21.89-67.42,11.15-82-24.8a76.74,76.74,0,0,1-4.37-14.81A78,78,0,0,1,1151.71,1552.31Z" transform="translate(-472.08 -940.08)"/><path class="cls-1" d="M1290.15,1844.21c-20.6.09-40.86-12.35-47.65-32.22-6.29-18.4-3.3-35.64,10.78-49.33,13.75-13.37,30.59-16.93,49-10.64,10.41,3.55,15.16,12.6,11.92,21.85s-12.33,13.23-22.84,9.71c-7.31-2.45-14.75.4-17.34,6.62-2.94,7.08-.06,14.31,7.17,18a26.42,26.42,0,0,0,18,2.2c21.8-4.87,41-14.79,56.52-31,8.23-8.55,13-18.87,13.25-31,.22-9-2.64-16.7-9.16-22.94-6.25-6-12.85-11.65-18.83-17.89a59.62,59.62,0,0,1-11.57-66.24c9.59-21.24,32-35.07,55.8-34.41,10,.28,17.48,7.55,17.42,16.84-.07,9.45-7.46,16.43-17.6,16.49-11.75.07-20.93,4.8-25.46,15.82s-2,21,6.41,29.33c3.89,3.87,7.92,7.64,12.1,11.19,33.75,28.64,27.45,69.36,11.2,93.9-11.56,17.46-27.67,29.51-46,38.91C1327.64,1837.46,1311.57,1844.21,1290.15,1844.21Z" transform="translate(-472.08 -940.08)"/><path class="cls-1" d="M992.38,1571.22c-42.89.75-62.77-33.07-59.92-67,1.54-18.4,9.75-34,20.61-48.48a245.1,245.1,0,0,1,22.85-25.77c6.89-6.9,17.08-7.07,23.75-.65s7,16.54.29,23.74c-7.72,8.28-15.72,16.31-22.26,25.61-7.52,10.68-13.06,22-11.91,35.64,1.3,15.43,9.91,23.6,25.29,23.67,11,0,21.35-3.1,31.88-5.51,15.69-3.61,31.44-6.1,47.34-1.37,22.36,6.65,37.19,26.78,35.79,48.32a16.65,16.65,0,0,1-33.21.38c-.82-11.3-7-17.21-18.47-17.82-10.32-.56-20.14,2.14-30,4.48C1013.7,1569,1003,1571.37,992.38,1571.22Z" transform="translate(-472.08 -940.08)"/><path class="cls-1" d="M780.26,1765.62c0,27.2-4.09,51.85-13.3,75.55-4.24,10.91-16.14,14.81-25.31,8.52a16.46,16.46,0,0,1-6-19.9,171.59,171.59,0,0,0,11.2-69c-1.31-31.44-9.53-60.68-28.78-86.18a106.46,106.46,0,0,0-10.42-11.43c-7.17-7.09-7.55-17.31-1-24.1s16.76-6.84,24.15.09c18.79,17.61,31,39.34,39.18,63.48A192.29,192.29,0,0,1,780.26,1765.62Z" transform="translate(-472.08 -940.08)"/><path class="cls-1" d="M956.14,1761.31c18.49.21,34.61,4.28,49.4,13.13,9.06,5.42,12,15.19,7.22,23.46s-14.72,10.62-23.92,5.45c-41.61-23.37-89.45,3.16-91.7,50.85-.45,9.48-7.51,16.46-16.64,16.43-9.34,0-16.47-7.32-16.59-17-.62-45.85,38-88.21,83.58-91.77C950.81,1761.62,954.14,1761.44,956.14,1761.31Z" transform="translate(-472.08 -940.08)"/><path class="cls-1" d="M847.86,1341.39a91.89,91.89,0,0,1-41.43-10c-9.79-5-13.49-14.45-9.13-23.18s14.14-11.53,23.93-6.72c29.63,14.56,63,3.84,78.73-25.26,5.18-9.62,14.65-13,23.36-8.38s11.41,14.55,6.07,24.11C911.58,1323.84,884.26,1340.17,847.86,1341.39Z" transform="translate(-472.08 -940.08)"/><path class="cls-1" d="M612.38,1209.19c-29.89,0-50.77-30.66-39.86-58.58,3.73-9.56,12.61-14.14,21.49-11.09,9.13,3.14,13.27,12.35,10,22.32-1.68,5.14-.14,10.46,3.69,12.83s9.1,1.39,13.09-2.59c7.58-7.55,17.46-8.22,24.38-1.65,7.12,6.74,7,16.88-.3,24.92C636.92,1204.14,625.07,1209.18,612.38,1209.19Z" transform="translate(-472.08 -940.08)"/><path class="cls-1" d="M1389.82,1293a70.18,70.18,0,0,1,3.41-21.66c3-9.56,12-14.6,21.1-11.87s13.68,11.88,10.86,21.54c-5,17.14.41,33.41,14.76,44.25,7.8,5.89,9.64,15.85,4.32,23.4-5.49,7.79-15.69,9.53-23.82,3.68C1400.21,1337.77,1390.84,1317.51,1389.82,1293Z" transform="translate(-472.08 -940.08)"/><path class="cls-1" d="M765.49,1184.89a37.87,37.87,0,0,1-12.77-2.52,16.6,16.6,0,0,1-9.57-19.76A16.88,16.88,0,0,1,761,1150.44c12,1.48,20.25-3.89,23.93-15.74.74-2.36.94-4.89,1.57-7.3,2.19-8.51,9.66-13.53,18.46-12.49a16,16,0,0,1,14.24,16C818.54,1156.38,796.47,1184.63,765.49,1184.89Z" transform="translate(-472.08 -940.08)"/><path class="cls-1" d="M1223,1416.47c-15.43-.39-27.25-5.89-36.24-17.06-6.26-7.77-5.34-18.16,1.91-24.06,7.06-5.77,17.11-4.67,23.65,2.57,6.86,7.59,14.68,6.79,19.75-2,4.91-8.53,14.45-11.67,22.6-7.43,8.38,4.35,11.55,14.35,6.92,23.09C1253.16,1407.43,1239.85,1415.72,1223,1416.47Z" transform="translate(-472.08 -940.08)"/><path class="cls-1" d="M497.66,1735.19c-.38-.25-.74-.52-1.09-.8a15.11,15.11,0,0,1-1.68-.91l.23.42c.66,2.58,2.95,3.2,5,4.13l2.84,1.2,0-.14A14.46,14.46,0,0,1,497.66,1735.19Z" transform="translate(-472.08 -940.08)"/><path class="cls-1" d="M498.08,1775.64l0,0a14,14,0,0,1,6,2.4l.13-.23A12.85,12.85,0,0,0,498.08,1775.64Z" transform="translate(-472.08 -940.08)"/><path class="cls-1" d="M497.78,1824.09a4.92,4.92,0,0,1,2.31-1.72,13.71,13.71,0,0,1-6.22-1.81A18.25,18.25,0,0,0,491,1820c-.25,2.34,2.48,2.88,3.12,5-2,0-3.83,0-5.64,0-1,0-2.17.22-2.14,1.5s1.2,1.42,2.22,1.43c2.82,0,5.65.11,8.48,0,1.33-.05,3.32.77,3.69-1.41S498,1825.93,497.78,1824.09Z" transform="translate(-472.08 -940.08)"/><path class="cls-1" d="M500.79,1771c-.73-2.63-2.85-3.88-5.66-4s-5.29.39-7,2.84v.43a15.1,15.1,0,0,1,1.76.58,14.08,14.08,0,0,1,7.93,4.5C499.57,1774.39,501.48,1773.4,500.79,1771Z" transform="translate(-472.08 -940.08)"/><path class="cls-1" d="M493.89,1753.31c-4.09,1-5.77-.65-5.76-3.87,0-3.61,2.31-3.91,5.18-3a1.79,1.79,0,0,0,1.41-.07c2.15-1.65,4-1.42,5.45.84a4,4,0,0,1,.24,4.67c-1.27,1.94-3.06,2.37-5.22,1.62A5.9,5.9,0,0,0,493.89,1753.31Z" transform="translate(-472.08 -940.08)"/><path class="cls-1" d="M490.88,1762.15a27.21,27.21,0,0,0,4.35,2.35c1.13.51,2.73.56,2.62-1-.18-2.59,1.94-3.44,3.4-5-2.9-2.28-5.88-1.78-8.79-1.46-1.5.16-3.57-.91-4.22,1.4C487.63,1760.58,489.61,1761.26,490.88,1762.15Z" transform="translate(-472.08 -940.08)"/><path class="cls-1" d="M500.1,1738a16.38,16.38,0,0,0-5-4.13,31.16,31.16,0,0,0-4.35.78c-2.22.73-3,2.47-2.62,4.71a3.87,3.87,0,0,0,3.16,3.41c2.31.44,3.73-.77,4.58-2.86.3-.73-.39-2.15,1-2.09,1.89.81.33,4.52,3.2,3.68C501.81,1741,499.79,1739.25,500.1,1738Z" transform="translate(-472.08 -940.08)"/><path class="cls-1" d="M496.7,1848c-3.23,0-5.4-1-5.49-4.11-.08-2.93,1.77-4.61,4.63-4.72s4.85,1.38,5.07,4.29C501.15,1846.5,499.17,1847.79,496.7,1848Z" transform="translate(-472.08 -940.08)"/><path class="cls-1" d="M491.85,1829.7c1.63,2.31,1.23,5.17,4.22,5.21s2.54-2.9,4.18-5.05c1.23,2.63.55,4.56-.93,6a5,5,0,0,1-6,.49C491,1835,490.58,1832.9,491.85,1829.7Z" transform="translate(-472.08 -940.08)"/><path class="cls-1" d="M498,1770.23c-2-.13-3.93-2.29-5.95-.17a3.4,3.4,0,0,0-.29,1.24,14.31,14.31,0,0,1,4.44,2.46,3.31,3.31,0,0,0,2.61-2A1.13,1.13,0,0,0,498,1770.23Z" transform="translate(-472.08 -940.08)"/><path class="cls-1" d="M492.35,1737a1.79,1.79,0,0,0-1.88,1.85,1.62,1.62,0,0,0,1.9,1.73c1.14-.14,1.58-1,1.58-2.15C493.84,1737.47,493.36,1736.89,492.35,1737Z" transform="translate(-472.08 -940.08)"/><path class="cls-1" d="M498.77,1843.85c-.35,1.6-1.48,2.06-2.89,2a2.37,2.37,0,0,1-2.58-2.37,2.12,2.12,0,0,1,2.47-2.35A3.25,3.25,0,0,1,498.77,1843.85Z" transform="translate(-472.08 -940.08)"/><path class="cls-1" d="M508,1860.8a41.11,41.11,0,0,0-14.35-3.87c-4.56-.35-7.48.27-12.61-.81a34.87,34.87,0,0,1-8.91-3.19v-34a91.5,91.5,0,0,1,44.48,7.79" transform="translate(-472.08 -940.08)"/><path class="cls-1" d="M479.87,1707.64s6.15,33.66,58.32,43.66l-11.44,32.14s-34.38-3.09-54.67-25.49Z" transform="translate(-472.08 -940.08)"/><path class="cls-2" d="M1019.72,1354.19c-27,.51-50.78,10.21-72.46,25.7-23.45,16.76-42.34,38.19-60.85,60-24.13,28.39-46.89,57.8-66.64,89.49-9.06,14.54-19.77,27.91-33.78,38.11-16.61,12.1-35.18,16.88-55.44,12.52-33.88-7.3-50.79-42.75-35.51-73.87,6-12.25,15-22,25.83-30.09,8.57-6.42,17.46-12.39,26-18.77,8.92-6.62,16.89-14.13,21.66-24.48,10.62-23,1.65-45.06-22.07-54.14-22.09-8.45-51.07-.74-63.46,17.12-5.26,7.58-15.06,8.73-22.28,3.51s-8.86-15.13-3.34-22.73c13.08-18,31.22-28,52.78-31.93,22.71-4.12,44.23-.77,63.62,12.36,32.69,22.14,40.87,61.52,20.24,96.44-8.41,14.23-20.63,24.64-33.86,34.07-6.57,4.68-13.23,9.23-19.71,14s-12,10.36-15.88,17.42c-7.94,14.42.52,29.44,16.92,30.25a38.51,38.51,0,0,0,27.16-9,108.06,108.06,0,0,0,23-26.72c27.17-43.44,59.09-83.2,93.65-120.87,21.76-23.71,45.88-44.55,75.8-57.55,29.12-12.64,59.25-17.74,90.28-8.63,29.83,8.76,52.64,26.5,63.45,56.59,15.62,43.47-19.69,92.51-65.81,92.12-10.49-.09-17.66-6.74-17.59-16.32.06-9.34,7.21-16.39,17.47-15.83,21,1.14,48.64-26.81,33.14-55.17-10.44-19.11-27.53-28.77-48.41-32.54A69.72,69.72,0,0,0,1019.72,1354.19Z" transform="translate(-472.08 -940.08)"/><path class="cls-2" d="M1179.63,1245.11c0-10.41,3.08-24.87,5.19-39.44,1.58-10.93,3-21.89.46-32.84-3.68-15.62-18.66-25.76-33.85-23.11-16.47,2.86-27.22,20.62-22.45,37.16,1.89,6.57,4.94,12.7,7.63,19,5.46,12.68,8.22,25.69,4.9,39.44-5.88,24.36-30.34,35.29-52.37,23.34-12.15-6.59-20.59-16.74-26.83-28.86-3.62-7-6.61-14.38-10.9-21.06-8.3-12.91-18.67-13-27.4-.28-6.1,8.9-5.35,18.85-4.06,28.77,1.15,8.79,4.13,17.17,6.26,25.74a15.16,15.16,0,0,1-8.28,17.45,15.37,15.37,0,0,1-18.87-4.29,12.82,12.82,0,0,1-2.3-4c-5-15.71-9.53-31.57-8.74-48.27,1.15-24.12,11.57-42.67,34.23-52.66,17.81-7.86,37.11-2.28,50.1,13.49,6.47,7.86,10.93,16.9,15.24,26,3.07,6.48,6.31,12.84,12,17.53,2.6,2.16,5.4,5.2,8.92,3.74s3.23-5.64,3.31-9c.13-5.42-1.87-10.33-4-15.19-4-9.25-8.39-18.34-10.19-28.37-5.55-30.86,14.14-61.86,44-69.36,30.62-7.68,62.73,10.24,72.42,40.41,5.29,16.45,4,33.09,1.49,49.77-1.7,11.51-3.74,23-4.77,34.56-2.95,33.3,20.5,68.59,51.58,77.26,8.27,2.31,16.55,2.62,24.65-.65a18.57,18.57,0,0,0,10.86-22.15,10.2,10.2,0,0,0-5.09-6.31c-8-4.65-10.66-13.44-6.57-21.11s13.3-10.27,21.72-6c15.24,7.7,24,26.08,21.24,44.52-4.27,28.43-27.63,46.59-57.55,44.44-34.09-2.46-58.36-20.7-76.07-48.67C1184.73,1288.89,1179.49,1269.91,1179.63,1245.11Z" transform="translate(-472.08 -940.08)"/><path class="cls-2" d="M820.13,1711.87c.13-53.6,35.44-102.62,84.79-117.51,27.72-8.36,54.62-4.83,80.83,6.34,21.24,9.06,39.74,22.22,56.13,38.38,21.87,21.54,45.36,41,72.36,55.81,15.58,8.56,31.79,15.5,49.91,16.5,10.86.59,21-1.64,30-8a30.26,30.26,0,0,0,11.19-32.22,18.36,18.36,0,0,0-8.13-10.88c-8-5-10.17-14.3-5.43-21.77,4.62-7.28,13.72-9.26,21.67-4.72,16.84,9.6,26.33,31,23.7,52-4.61,37-34,52.81-58.39,56-25.36,3.34-48.55-4.14-70.79-15.16-32.45-16.08-60.33-38.46-86.05-63.68-14.52-14.25-30.6-26.2-49.47-34.15-46.26-19.51-93.49-.42-113.31,45.83a93.94,93.94,0,0,0-7.4,46.8c1.18,12.27-8.81,20.9-19.84,17.47-6.19-1.93-9.81-6.26-10.85-12.68A86.65,86.65,0,0,1,820.13,1711.87Z" transform="translate(-472.08 -940.08)"/><path class="cls-2" d="M757.19,1235c17,1.11,34,2.3,51.08,3.32,23.66,1.42,47.19,1.16,69.9-6.89,24.88-8.81,41.73-24.93,46.77-51.79a62.8,62.8,0,0,0-54.12-74.07,68.34,68.34,0,0,0-24.93,1.32,15.51,15.51,0,1,1-7.57-30.08c49.72-13.34,110.86,18.72,117.85,78.48,5.73,49-20.78,89.6-68.52,105.84-20.83,7.09-42.34,9.24-64.19,8.89-22.2-.35-44.27-3-66.45-3.71-22-.75-43.74.79-64.28,9.78-15,6.57-27.48,16-35.31,31a15.24,15.24,0,0,1-20.73,6.66c-7.74-3.93-10.77-13-6.69-21.08,10.21-20.26,26.65-33.94,46.83-43.49,19.67-9.32,40.58-13.23,62.19-13.91,6.05-.19,12.1,0,18.15,0Z" transform="translate(-472.08 -940.08)"/><path class="cls-2" d="M1139.44,1544.63c2.31-37.27,20.21-64.92,52.25-83.66a88.81,88.81,0,0,1,36.08-11.43c9.32-1,17.07,4.86,18.06,13.5,1,8.93-4.7,16.49-14.19,17.32-28.14,2.47-54.17,26.21-59.83,54.13-2.27,11.2-1.44,22,4.4,32,5.94,10.15,14.83,12.28,24.89,6.16,7.4-4.51,13.27-10.75,18.46-17.54,14.34-18.72,28.48-37.59,42.7-56.4,6.57-8.68,13.64-16.89,22.32-23.59,31-24,67.12-8.32,79.84,15.37,11.86,22.08,5.18,52-15.2,66.75-7.71,5.57-17,4.6-22.4-2.36s-4-16.45,3.65-22.52c7.46-5.9,10.24-13.75,8.14-22.75s-9-13.44-17.67-15.1c-6.93-1.32-12.75,1.62-18,5.75-5.91,4.63-10.62,10.41-15.13,16.36-14.63,19.27-29.13,38.64-43.86,57.84-6.45,8.39-13.75,16-22.55,22-29.78,20.39-62.82,10.38-76.4-23.11a71.44,71.44,0,0,1-4.07-13.8A73.06,73.06,0,0,1,1139.44,1544.63Z" transform="translate(-472.08 -940.08)"/><path class="cls-2" d="M1268.43,1816.58c-19.2.09-38.07-11.5-44.4-30-5.86-17.14-3.07-33.2,10-46,12.81-12.46,28.5-15.77,45.64-9.92,9.7,3.31,14.12,11.75,11.11,20.36s-11.5,12.33-21.29,9c-6.81-2.28-13.74.37-16.15,6.17-2.74,6.59-.06,13.33,6.68,16.72a24.61,24.61,0,0,0,16.77,2c20.31-4.54,38.16-13.78,52.66-28.85,7.66-8,12.07-17.58,12.34-28.84.21-8.34-2.46-15.56-8.53-21.37-5.83-5.58-12-10.85-17.55-16.67A55.54,55.54,0,0,1,1305,1627.6c8.94-19.79,29.84-32.67,52-32.06,9.28.26,16.28,7,16.23,15.69s-7,15.31-16.4,15.36c-10.94.07-19.5,4.48-23.72,14.75s-1.85,19.53,6,27.32c3.63,3.61,7.38,7.11,11.28,10.42,31.44,26.69,25.57,64.62,10.43,87.48-10.77,16.27-25.77,27.5-42.84,36.26C1303.35,1810.3,1288.38,1816.58,1268.43,1816.58Z" transform="translate(-472.08 -940.08)"/><path class="cls-2" d="M991,1562.25c-40,.7-58.48-30.81-55.82-62.46,1.43-17.15,9.08-31.7,19.2-45.17a228.8,228.8,0,0,1,21.28-24c6.42-6.43,15.92-6.58,22.13-.6s6.53,15.41.27,22.12c-7.19,7.71-14.64,15.19-20.73,23.85-7,10-12.17,20.49-11.1,33.21,1.21,14.37,9.23,22,23.56,22,10.21,0,19.89-2.88,29.7-5.14,14.62-3.35,29.29-5.67,44.1-1.27,20.84,6.2,34.65,25,33.35,45a15.51,15.51,0,0,1-30.94.35c-.77-10.52-6.51-16-17.21-16.6-9.61-.52-18.76,2-27.95,4.18C1010.87,1560.14,1000.9,1562.4,991,1562.25Z" transform="translate(-472.08 -940.08)"/><path class="cls-2" d="M793.39,1743.37c0,25.33-3.81,48.3-12.4,70.39-4,10.16-15,13.79-23.57,7.93a15.34,15.34,0,0,1-5.58-18.54,159.72,159.72,0,0,0,10.43-64.29c-1.22-29.28-8.88-56.53-26.81-80.29a98.81,98.81,0,0,0-9.71-10.64c-6.68-6.61-7-16.13-.92-22.46s15.61-6.37,22.5.09c17.51,16.4,28.87,36.65,36.5,59.14A179.18,179.18,0,0,1,793.39,1743.37Z" transform="translate(-472.08 -940.08)"/><path class="cls-2" d="M957.25,1739.35c17.22.2,32.24,4,46,12.23,8.44,5.06,11.2,14.15,6.72,21.86s-13.71,9.89-22.28,5.08c-38.76-21.78-83.34,2.94-85.43,47.37-.42,8.84-7,15.33-15.5,15.31-8.7,0-15.34-6.82-15.46-15.82-.58-42.71,35.37-82.18,77.87-85.5C952.28,1739.64,955.38,1739.47,957.25,1739.35Z" transform="translate(-472.08 -940.08)"/><path class="cls-2" d="M856.37,1348.13a85.57,85.57,0,0,1-38.6-9.32c-9.12-4.62-12.56-13.46-8.5-21.6s13.17-10.74,22.29-6.26c27.61,13.56,58.74,3.58,73.34-23.53,4.83-9,13.66-12.13,21.78-7.81s10.62,13.56,5.65,22.46C915.73,1331.79,890.28,1347,856.37,1348.13Z" transform="translate(-472.08 -940.08)"/><path class="cls-2" d="M599.31,1225c-27.84,0-47.3-28.56-37.13-54.57,3.48-8.91,11.75-13.18,20-10.34,8.51,2.93,12.36,11.51,9.33,20.8-1.55,4.79-.13,9.75,3.45,12s8.48,1.29,12.19-2.41c7.06-7,16.26-7.66,22.72-1.54,6.62,6.28,6.51,15.73-.28,23.21C622.17,1220.26,611.14,1225,599.31,1225Z" transform="translate(-472.08 -940.08)"/><path class="cls-2" d="M1381.48,1299.83a64.92,64.92,0,0,1,3.18-20.18c2.83-8.9,11.22-13.6,19.65-11.06s12.75,11.07,10.12,20.07c-4.67,16,.39,31.12,13.75,41.22,7.27,5.49,9,14.77,4,21.81-5.11,7.25-14.61,8.88-22.18,3.42C1391.16,1341.54,1382.43,1322.66,1381.48,1299.83Z" transform="translate(-472.08 -940.08)"/><path class="cls-2" d="M779.63,1202.33a35.54,35.54,0,0,1-11.9-2.35,15.47,15.47,0,0,1-8.92-18.41,15.73,15.73,0,0,1,16.64-11.33c11.19,1.38,18.86-3.62,22.29-14.66.69-2.21.88-4.56,1.46-6.81,2-7.92,9-12.6,17.2-11.64a14.89,14.89,0,0,1,13.26,14.95C829.05,1175.77,808.49,1202.09,779.63,1202.33Z" transform="translate(-472.08 -940.08)"/><path class="cls-2" d="M1205.84,1418.08c-14.37-.36-25.38-5.49-33.76-15.89-5.83-7.24-5-16.92,1.78-22.42,6.58-5.37,16-4.35,22,2.4,6.39,7.07,13.68,6.32,18.4-1.89,4.57-8,13.46-10.87,21-6.93,7.81,4.06,10.76,13.37,6.45,21.52C1234,1409.66,1221.57,1417.38,1205.84,1418.08Z" transform="translate(-472.08 -940.08)"/><path class="cls-2" d="M530.5,1752.7l0,0a12.82,12.82,0,0,1,5.56,2.24c0-.07.08-.15.13-.22A11.92,11.92,0,0,0,530.5,1752.7Z" transform="translate(-472.08 -940.08)"/></svg>